# xmcd
#
# Track frame offsets: 
#        150
#        17117
#        30197
#        50737
#        68535
#        81007
#        90352
#        106272
#        124530
#        134107
#        159430
#        169150
#        177940
#        189537
#        203337
#        216562
#        225990
#        238672
#        254434
#        264557
#        281267
#        289130
#        304250
#        327277
#
# Disc length: 4507 seconds
#
# Revision: 3
# Processed by: cddbd v1.5.1PL0 Copyright (c) Steve Scherf et al.
# Submitted via: ExactAudioCopy v0.95a5
#
DISCID=4a119918
DTITLE=Mississippi John Hurt - Rediscovered
DYEAR=1998
DGENRE=Blues
TTITLE0=Coffee Blues
TTITLE1=I'm Satisfied
TTITLE2=Make Me A Pallet On Your Floor
TTITLE3=Monday Morning Blues
TTITLE4=Since I've Laid My Burden Down
TTITLE5=Stocktime (Buck Dance)
TTITLE6=Hot Time In The Old Town Tonight
TTITLE7=Richland Women Blues
TTITLE8=Keep On Knocking
TTITLE9=Stagolee
TTITLE10=Hop Joint
TTITLE11=Funky Butt
TTITLE12=It Ain't Nobody's Business
TTITLE13=Salty Dog Blues
TTITLE14=Candy Man
TTITLE15=You Are My Sunshine
TTITLE16=I've Got The Blues And I Can't Be Satisfied
TTITLE17=Nearer My God To Thee
TTITLE18=Shortnin' Bread
TTITLE19=Avalon, My Home Town
TTITLE20=First Shot Missed Him
TTITLE21=Let The Mermaids Flirt With Me
TTITLE22=Talking Casey
TTITLE23=Goodnight Irene
EXTD=
EXTT0=
EXTT1=
EXTT2=
EXTT3=
EXTT4=
EXTT5=
EXTT6=
EXTT7=
EXTT8=
EXTT9=
EXTT10=
EXTT11=
EXTT12=
EXTT13=
EXTT14=
EXTT15=
EXTT16=
EXTT17=
EXTT18=
EXTT19=
EXTT20=
EXTT21=
EXTT22=
EXTT23=
PLAYORDER=
